<?xml version="1.0" standalone="no"?><!DOCTYPE svg PUBLIC "-//W3C//DTD SVG 1.1//EN" "http://www.w3.org/Graphics/SVG/1.1/DTD/svg11.dtd"><svg class="icon" width="128px" height="128.00px" viewBox="0 0 1024 1024" version="1.1" xmlns="http://www.w3.org/2000/svg"><path d="M475.136 122.6496c-110.6944 0-200.7296 88.7552-200.7296 197.9392a203.9808 203.9808 0 0 0 19.5328 85.9136c35.3792 76.2624 168.0384 233.7536 169.344 235.2896 2.176 2.56 5.632 3.328 11.8784 3.328h0.3072c7.6288 0 10.2912-1.7664 11.7248-3.6096 1.2544-1.536 125.056-154.9568 167.2192-233.0624 15.2576-28.2624 21.4784-53.376 21.4784-86.5536 0.0256-109.9008-90.0352-199.2448-200.7552-199.2448z m0 275.968a77.312 77.312 0 0 1-77.2352-77.184 77.312 77.312 0 0 1 77.2352-77.2352 77.3376 77.3376 0 0 1 77.2352 77.2608 77.3376 77.3376 0 0 1-77.2352 77.1584z"  /><path fill="#707070" d="M902.8608 921.6256l-228.8128-108.9792-265.5232 102.4-287.3856-107.4432V336.6656l82.3552 30.7968a12.8256 12.8256 0 0 1-8.96 24.0128l-47.7952-17.8944v416.3072l261.6064 97.792 266.7264-102.8608 202.1632 96.2816V465.8176l-74.2912-35.3792a12.8 12.8 0 1 1 11.008-23.0912l88.9088 42.3168v471.9616z"  /><path fill="#707070" d="M408.4992 777.856L129.4848 673.536a12.8 12.8 0 1 1 8.96-24.0128l269.9264 100.9152 266.7264-102.8608 220.4672 105.0112a12.8 12.8 0 1 1-11.008 23.0912l-210.5344-100.2496-265.5232 102.4256zM890.0608 625.92a12.8 12.8 0 0 1-5.504-1.2544l-215.5008-102.6304a12.8 12.8 0 1 1 11.008-23.0912l215.5008 102.6304a12.8 12.8 0 0 1-5.504 24.3456zM311.2704 589.5936a13.0304 13.0304 0 0 1-4.48-0.7936l-177.3312-66.304a12.8 12.8 0 1 1 8.96-24.0128l177.3312 66.304a12.8 12.8 0 0 1-4.48 24.8064zM764.416 459.8528c-33.7664 0-61.2608-27.4688-61.2608-61.2608s27.4688-61.2608 61.2608-61.2608 61.2608 27.4688 61.2608 61.2608-27.4688 61.2608-61.2608 61.2608z m0-96.896c-19.6608 0-35.6608 16-35.6608 35.6608s16 35.6608 35.6608 35.6608 35.6608-16 35.6608-35.6608-16-35.6608-35.6608-35.6608z"  /></svg>