<?xml version="1.0" standalone="no"?><!DOCTYPE svg PUBLIC "-//W3C//DTD SVG 1.1//EN" "http://www.w3.org/Graphics/SVG/1.1/DTD/svg11.dtd"><svg class="icon" width="128px" height="128.00px" viewBox="0 0 1024 1024" version="1.1" xmlns="http://www.w3.org/2000/svg"><path d="M909 892H115a50 50 0 0 1-50-50V182a50 50 0 0 1 50-50h794a50 50 0 0 1 50 50v660a50 50 0 0 1-50 50z m-131-60h101a20 20 0 0 0 20-20v-95H778v115z m121-175V542H778v115h121zM243 192h-98a20 20 0 0 0-20 20v94h118V192z m0 174H125v116h118V366z m0 176H125v115h118V542z m0 175H125v95a20 20 0 0 0 20 20h98V717z m475-525H303v640h415V192z m181 20a20 20 0 0 0-20-20H778v114h121v-94zM778 366v116h121V366H778z m-345.331 26.08l0.182-0.014c0.286-0.018 0.573-0.03 0.861-0.04q0.457-0.018 0.915-0.023h0.275a29.844 29.844 0 0 1 14.966 4.015l154.426 89.146a29.977 29.977 0 0 1 5.822 49.737 28.133 28.133 0 0 1-2.232 1.707q-0.817 0.568-1.669 1.079c-0.141 0.084-0.268 0.183-0.411 0.266L449.832 627.98a29.947 29.947 0 0 1-23.918 2.663l-0.1-0.029c-0.326-0.1-0.649-0.215-0.972-0.329-0.157-0.054-0.315-0.105-0.471-0.163-0.183-0.068-0.364-0.143-0.546-0.215-0.282-0.11-0.565-0.219-0.843-0.338-0.048-0.02-0.1-0.044-0.145-0.065a30 30 0 0 1-18.085-27.535V422a30 30 0 0 1 27.917-29.92z m32.086 157.984l65.987-38.086-65.987-38.093v76.179z"  /></svg>