<?xml version="1.0" standalone="no"?><!DOCTYPE svg PUBLIC "-//W3C//DTD SVG 1.1//EN" "http://www.w3.org/Graphics/SVG/1.1/DTD/svg11.dtd"><svg class="icon" width="128px" height="128.00px" viewBox="0 0 1024 1024" version="1.1" xmlns="http://www.w3.org/2000/svg"><path d="M873.134 564.628h0.02c8.284 0 15-6.716 15-15 0-0.265-0.007-0.528-0.021-0.79l-0.232-387.773c0-52.383-42.617-95-95-95H231.749c-52.383 0-95 42.617-95 95V862.33c0 52.383 42.617 95 95 95h247.438c8.284 0 15-6.716 15-15V629.628c0-35.841 29.159-65 65-65h313.947zM320.109 330.059H703.38c8.284 0 15 6.716 15 15s-6.716 15-15 15H320.109c-8.284 0-15-6.716-15-15s6.716-15 15-15z m0 151.209c-8.284 0-15-6.716-15-15s6.716-15 15-15H587.38c8.284 0 15 6.716 15 15s-6.716 15-15 15H320.109z"  /><path fill="#707070" d="M639.545 590.059h-64.987c-29.105 0-52.784 23.679-52.784 52.783v64.987c0 29.105 23.679 52.784 52.784 52.784h64.987c29.105 0 52.784-23.679 52.784-52.784v-64.987c0-29.104-23.679-52.783-52.784-52.783zM835.351 590.059h-64.988c-29.105 0-52.783 23.679-52.783 52.783v64.987c0 29.105 23.678 52.784 52.783 52.784h64.988c29.105 0 52.783-23.679 52.783-52.784v-64.987c0-29.104-23.678-52.783-52.783-52.783zM639.545 786.42h-64.987c-29.105 0-52.784 23.679-52.784 52.783v64.988c0 29.104 23.679 52.783 52.784 52.783h64.987c29.105 0 52.784-23.679 52.784-52.783v-64.988c0-29.105-23.679-52.783-52.784-52.783zM835.351 786.42h-64.988c-29.105 0-52.783 23.679-52.783 52.783v64.988c0 29.104 23.678 52.783 52.783 52.783h64.988c29.105 0 52.783-23.679 52.783-52.783v-64.988c0-29.105-23.678-52.783-52.783-52.783z"  /></svg>