<?xml version="1.0" standalone="no"?><!DOCTYPE svg PUBLIC "-//W3C//DTD SVG 1.1//EN" "http://www.w3.org/Graphics/SVG/1.1/DTD/svg11.dtd"><svg t="1565869568875" class="icon" viewBox="0 0 1024 1024" version="1.1" xmlns="http://www.w3.org/2000/svg" p-id="3219" xmlns:xlink="http://www.w3.org/1999/xlink" width="200" height="200"><defs><style type="text/css"></style></defs><path d="M512 32c-265.087 0-480 214.913-480 480s214.913 480 480 480c265.087 0 480-214.913 480-480 0-265.087-214.913-480-480-480v0zM512 941.473c-237.196 0-429.473-192.278-429.473-429.473 0-237.196 192.278-429.473 429.473-429.473 237.196 0 429.473 192.278 429.473 429.473 0 237.196-192.278 429.473-429.473 429.473v0zM719.663 485.272l0.228 0.152c4.497 2.905 7.225 4.851 7.629 5.482l-7.629-5.482c-47.317-30.593-300.657-175.528-308.943-175.528-7.883 0-14.652 3.84-19.301 9.499-3.108 3.057-7.099 11.722-8.312 16.244-1.389 5.077-0.884 351.764 0.708 356.362 3.612 13.491 21.448 24.101 34.939 20.488 3.157-1.061 5.962-2.677 8.438-4.825l293.052-168.228c11.748-3.157 18.821-14.172 18.164-25.844 0.657-11.723-7.225-25.162-18.972-28.32v0zM436.211 646.273v-265.465l231.208 132.757-231.208 132.708z" p-id="3220" fill="#1296db"></path></svg>